<?xml version="1.0" encoding="utf-8"?>
<!-- Generator: Adobe Illustrator 25.2.3, SVG Export Plug-In . SVG Version: 6.00 Build 0)  -->
<svg version="1.1"
	 id="svg1" xmlns:inkscape="http://www.inkscape.org/namespaces/inkscape" xmlns:sodipodi="http://sodipodi.sourceforge.net/DTD/sodipodi-0.dtd" xmlns:svg="http://www.w3.org/2000/svg"
	 xmlns="http://www.w3.org/2000/svg" xmlns:xlink="http://www.w3.org/1999/xlink" x="0px" y="0px" viewBox="0 0 226.8 226.8"
	 style="enable-background:new 0 0 226.8 226.8;" xml:space="preserve">
<style type="text/css">
	.st0{fill:#1A1413;}
	.st1{fill:#1D1D1B;}
</style>
<sodipodi:namedview  bordercolor="#000000" borderopacity="0.25" id="namedview1" inkscape:deskcolor="#d1d1d1" inkscape:pagecheckerboard="0" inkscape:pageopacity="0.0" inkscape:showpageshadow="2" pagecolor="#ffffff">
	
		<inkscape:page  bleed="0" height="127.1244" id="page1" inkscape:label="1" margin="1.0137933 1.3528 4.5556002 1.2668667" width="107.39573" x="0" y="0">
		</inkscape:page>
</sodipodi:namedview>
<g>
	<path id="path5" class="st0" d="M161.3,37.4l12-12l-12-12h10.2l12,12l-12,12H161.3z"/>
	<path id="path6" class="st0" d="M49.7,28.8h-6.8V22h6.8V28.8z"/>
	<path id="path7" class="st0" d="M98.6,29.8H80.4V21h18.2V29.8z"/>
	<path id="path8" class="st0" d="M71.3,29.4H58.9v-8h12.4V29.4z"/>
	<path id="path9" class="st0" d="M132.5,30.2h-24.7v-9.6h24.7V30.2z"/>
	<path id="path10" class="st0" d="M175,30.6h-33.4V20.2H175V30.6z"/>
	<path id="path11" class="st0" d="M65.2,189.3l-12,12l12,12H54.9l-12-12l12-12H65.2z"/>
	<path id="path12" class="st0" d="M176.7,198h6.8v6.8h-6.8V198z"/>
	<path id="path13" class="st0" d="M127.8,197H146v8.9h-18.2V197z"/>
	<path id="path14" class="st0" d="M155.1,197.4h12.4v8h-12.4V197.4z"/>
	<path id="path15" class="st0" d="M94,196.6h24.7v9.6H94V196.6z"/>
	<path id="path16" class="st0" d="M51.5,196.2h33.4v10.4H51.5V196.2z"/>
	<path id="path17" class="st0" d="M195.4,93.3c0,2.2-1.1,4.1-2.7,5.2V76.2c1.6,1.2,2.7,3.1,2.7,5.2V93.3z M185.4,173.6h-10.2v-0.5
		V48v-0.5h10.2v20.2V107V173.6z M44.2,55.3h123.7v110.5H44.2V55.3z M192.7,68.5V40.2h-24.8V48H44.2V33.7h-40V41h32.7v139.1H1.6v7.3
		h42.5v-14.3h123.7v7.8h24.8v-74.6c5.7-1.6,10-6.7,10-12.9V81.4C202.7,75.2,198.4,70.1,192.7,68.5"/>
</g>
<g>
	<path class="st1" d="M185.6,8c18.3,0,33.2,14.9,33.2,33.2v144.4c0,18.3-14.9,33.2-33.2,33.2H41.2C22.9,218.8,8,203.9,8,185.6V41.2
		C8,22.9,22.9,8,41.2,8H185.6 M185.6,0H41.2C18.5,0,0,18.5,0,41.2v144.4c0,22.6,18.5,41.2,41.2,41.2h144.4
		c22.6,0,41.2-18.5,41.2-41.2V41.2C226.8,18.5,208.2,0,185.6,0L185.6,0z"/>
</g>
</svg>
