<?xml version="1.0" encoding="UTF-8"?>
<svg id="Capa_1" xmlns="http://www.w3.org/2000/svg" version="1.1" viewBox="0 0 226.77 226.77">
  <!-- Generator: Adobe Illustrator 29.8.3, SVG Export Plug-In . SVG Version: 2.1.1 Build 3)  -->
  <defs>
    <style>
      .st0 {
        fill: none;
        stroke: #1a1414;
        stroke-linecap: round;
        stroke-linejoin: round;
        stroke-width: .75px;
      }
    </style>
  </defs>
  <path class="st0" d="M164.94,213.29l60.41-34.85M225.35,176.15v2.29M164.74,213.16l.2.13M164.94,211v2.29M164.74,210.94l.2.07M164.94,211l60.41-34.85M225.35,105.8l-1.96-1.18M223.39,104.62l-60.41,34.91M164.94,211l60.41-34.85M225.35,105.8v70.35M164.94,140.65l60.41-34.85M164.74,210.94l.2.07M164.94,140.65v70.35M162.98,139.54l1.96,1.11M162.98,139.54v.72M65.62,13.55l-1.96-1.11M63.66,12.43L3.25,47.28M3.25,47.28l1.96,1.18M3.25,47.28v.98M65.62,43.82v1.31M5.21,48.46L65.62,13.55M5.21,48.46v.72M95.05,91.61v-.2l-.07-.2-.13-.2-.13-.07-.13-.07-.26.07-.2.07-.2.13-.2.2-.2.2-.13.26-.13.26-.13.33v.72l.13.13.13.13.13.07h.2l.2-.07.2-.07.2-.2.26-.2.13-.26.13-.26.13-.26.07-.26v-.26M143.49,60.82v29.29M143.49,60.82l-1.96-1.18M141.53,59.64l-53.88,31.12M87.66,90.76l1.96,1.11M89.62,91.87l53.88-31.06M7.82,50.68v-3.79M165.59,138.04L7.82,46.89M167.56,136.86L9.79,45.78M7.82,46.89l1.96-1.11M165.59,138.04l1.96-1.18M113.03,71.21l-47.4-27.4M197.17,119.79l-23.21-13.4M65.62,43.82l-1.96-1.11M65.62,13.55l157.77,91.08M63.66,14.66l1.96-1.11M73.08,35.25v-.13l-.07-.13-.13-.07-.07-.13h-.2l-.07.07v.26l.07.13.07.07.13.13h.2l.07-.07v-.13M152.98,81.41l-.07-.13-.07-.13-.07-.13-.07-.07-.13-.07h-.07l-.07.07v.26l.07.13.07.13.13.07h.13l.07-.07.07-.07M63.66,42.71V14.66M143.49,88.8l53.68,30.99M63.66,42.71l53.61,30.93M63.66,14.66l157.77,91.14M221.43,105.8l1.96-1.18M154.61,120.19l10.2,5.88M74.71,74.09l10.27,5.88M152.65,121.3l10.2,5.88M72.75,75.2l10.27,5.88M165.2,108.87v-.07l.07-.07.07-.07.13.07.07.07.13.13.07.13v.2l-.07.07-.13.07-.07-.07-.13-.07-.07-.13-.07-.13v-.13M143.49,88.8l28.51,16.48M113.03,71.21l4.25,2.42M113.03,72.52v-1.31M172,120.38l-12.88-7.45M173.96,106.39v12.88M173.96,106.39l-1.96-1.11M172,105.28v15.1M172,120.38l1.96-1.11M41.76,64.22l13.4-7.72M57.12,40.22l-28.51,16.48M55.16,39.11l1.96,1.11M55.16,39.11l-28.51,16.41M105.44,68.14l1.96,1.11M105.44,68.14l-28.51,16.41M107.4,69.25l-28.44,16.48M79.29,69.19l-.72-.39M79.29,69.19v2.29M64.77,77.56l14.52-8.37M79.29,71.48l-12.55,7.19M64.12,77.16l14.45-8.37M78.57,68.79v-.26M77.98,57.48l.07-.13.07-.13.07-.13.07-.07h.2l.07.07v.2l-.07.13-.07.13-.13.07-.07.07h-.07l-.07-.07-.07-.13M63.86,77.03l15.43-8.89M79.29,52.97v15.17M79.29,52.97l-28.51,16.48M77.26,51.86l2.03,1.11M77.26,51.86l-28.44,16.48M5.54,49.38l-2.09-1.24M1.42,49.31l2.03-1.18M5.54,49.38l5.17,3.01,5.17,3.07,5.17,3.14,5.17,3.2,5.17,3.27,5.17,3.33,5.17,3.4,5.17,3.4,5.17,3.53,5.17,3.53,5.1,3.66M5.54,49.38l-1.96,1.11M62.29,85.92l2.16,1.44,2.09,1.5,2.16,1.37,2.16,1.37,2.09,1.37,2.16,1.31,2.09,1.31,2.16,1.24M62.29,85.92l-1.96,1.11M79.35,96.84l9.42,5.43M79.35,96.84l-1.96,1.11M88.77,102.27l2.16,1.24,2.16,1.18,2.09,1.18,2.16,1.05,2.09,1.11,2.16,1.05,2.16.98,2.09.98M88.77,102.27l-1.96,1.18M105.83,111.03l5.17,2.29,5.1,2.42,5.17,2.42,5.17,2.55,5.17,2.55,5.17,2.68,5.17,2.68,5.17,2.81,5.23,2.81,5.17,2.88,5.17,2.94M105.83,111.03l-1.96,1.11M164.74,213.16v-71.86M162.78,214.34l1.96-1.18M162.65,140.06l-1.96,1.18M162.78,142.42l1.96-1.11M164.74,141.3l-2.09-1.24M103.87,112.14l5.17,2.35,5.1,2.35,5.17,2.48,5.17,2.48,5.17,2.62,5.17,2.62,5.17,2.75,5.17,2.75,5.17,2.81,5.23,2.94,5.17,2.94M86.81,103.45l2.16,1.18,2.16,1.18,2.09,1.18,2.16,1.11,2.09,1.05,2.16,1.05,2.09.98,2.16.98M77.39,97.96l9.42,5.49M60.33,87.04l2.16,1.5,2.09,1.44,2.16,1.44,2.16,1.37,2.09,1.37,2.16,1.31,2.09,1.24,2.16,1.24M3.57,50.49l5.17,3.07,5.17,3.07,5.17,3.14,5.17,3.2,5.17,3.27,5.17,3.27,5.17,3.4,5.17,3.47,5.17,3.47,5.17,3.6,5.1,3.6M3.57,50.49l-2.16-1.18M1.42,49.31v71.86M1.42,121.17l161.37,93.17M162.78,214.34v-71.92M162.78,142.42l-2.09-1.18M187.3,115.35l-1.96-1.11M185.34,114.24l-28.51,16.48M187.3,115.35l-28.51,16.48M107.4,69.25l8.76,5.03M105.44,70.36l1.96-1.11M105.44,70.36l8.76,5.1M105.44,80.5v-10.13M137.02,86.32l-1.96-1.11M135.06,85.21l-28.51,16.48M137.02,86.32l-28.51,16.48M121.66,110.38l13.4-7.78M135.06,87.49v15.1M135.06,102.6l7.06,4.05M157.16,97.96l-20.14-11.64M135.06,87.49l1.96-1.18M155.2,99.13l-20.14-11.64M155.2,99.13l1.96-1.18M55.16,56.5v-15.17M62.22,60.56l-7.06-4.05M57.12,40.22l20.14,11.64M55.16,41.33l1.96-1.11M55.16,41.33l20.14,11.64M75.3,52.97l1.96-1.11M196.06,120.45l-8.76-5.1M185.34,116.52l1.96-1.18M194.1,121.56l-8.76-5.03M185.34,116.52v10.07M159.12,117.57l-12.49,7.19M159.12,117.57v-2.29M144.67,123.65l14.45-8.37M158.47,114.89l.65.39M144.02,123.26l14.45-8.37M158.47,114.63v.26M158.4,103.32v-.13l-.07-.07h-.2l-.07.13-.13.07v.13l-.07.13.07.13v.07h.2l.13-.07.07-.13.07-.13v-.13M159.12,114.24v-15.1M143.76,123.13l15.37-8.89M159.12,99.13l-28.51,16.41M159.12,99.13l-1.96-1.18M157.16,97.96l-28.51,16.48"/>
</svg>