<?xml version="1.0" encoding="UTF-8"?>
<svg xmlns="http://www.w3.org/2000/svg" version="1.1" xmlns:inkscape="http://www.inkscape.org/namespaces/inkscape" xmlns:sodipodi="http://sodipodi.sourceforge.net/DTD/sodipodi-0.dtd" xmlns:svg="http://www.w3.org/2000/svg" viewBox="0 0 210.73 70.37">
  <!-- Generator: Adobe Illustrator 30.1.0, SVG Export Plug-In . SVG Version: 2.1.1 Build 136)  -->
  <defs>
    <style>
      .st0 {
        fill: #000000;
      }

      .st1 {
        font-family: MyriadPro-Regular, 'Myriad Pro';
        font-size: 12px;
      }
    </style>
  </defs>
  <g id="svg1" sodipodi:docname="5dab8572-393a-4124-94bf-c362c76c7519.ai">
    <sodipodi:namedview id="namedview1" bordercolor="#000000" borderopacity="0.25" inkscape:deskcolor="#d1d1d1" inkscape:pagecheckerboard="0" inkscape:pageopacity="0.0" inkscape:showpageshadow="2" pagecolor="#ffffff">
      <inkscape:page id="page1" x="0" y="0" width="226.772" height="151.18134" bleed="0" inkscape:label="1" margin="49.965199 19.446667 51.247601 18.348801"/>
    </sodipodi:namedview>
    <g>
      <path id="path1" class="st0" d="M38.43,57.94h.94v-6.06h-.94v6.06Z"/>
      <path id="path2" class="st0" d="M38.91,49.45c-.36,0-.66.29-.66.63s.29.65.66.65.66-.28.66-.66c0-.34-.29-.62-.66-.62"/>
      <path id="path4" class="st0" d="M46.11,51.83c-.94,0-1.71.34-2.17.97v-.92h-.91v6.06h.94v-3.17c0-1.29.75-2.06,1.99-2.06,1.11,0,1.7.63,1.7,1.81v3.42h.94v-3.5c0-1.63-.93-2.6-2.5-2.6"/>
      <path id="path6" class="st0" d="M54.14,54.53c-.86-.16-1.6-.29-1.6-.96,0-.57.53-.9,1.47-.9.65,0,1.24.17,1.7.49l.07.05.42-.77-.05-.04c-.5-.34-1.34-.56-2.13-.56-1.46,0-2.41.69-2.41,1.76,0,1.35,1.21,1.57,2.27,1.76.84.15,1.56.28,1.56.91,0,.59-.51.89-1.51.89-.75,0-1.55-.25-2.05-.65l-.07-.05-.43.75.05.04c.52.45,1.51.75,2.45.75,1.55,0,2.51-.67,2.51-1.76,0-1.29-1.18-1.51-2.23-1.7"/>
      <path id="path8" class="st0" d="M62.33,52.68c1.23,0,2.13.94,2.13,2.23s-.87,2.23-2.13,2.23-2.13-.92-2.13-2.23.87-2.23,2.13-2.23M62.38,51.83c-.93,0-1.7.37-2.21,1.05v-1h-.91v8.24h.94v-3.13c.51.65,1.27,1.01,2.17,1.01,1.75,0,3.02-1.3,3.02-3.08s-1.27-3.07-3.02-3.07"/>
      <path id="path10" class="st0" d="M68.93,49.45c-.36,0-.66.29-.66.63s.29.65.66.65.66-.28.66-.66c0-.34-.29-.62-.66-.62"/>
      <path id="path12" class="st0" d="M68.45,57.94h.94v-6.06h-.94v6.06Z"/>
      <path id="path14" class="st0" d="M73.96,52.83v-.95h-.91v6.06h.94v-3.08c0-1.34.7-2.11,1.91-2.11.03,0,.05,0,.08,0,.04,0,.07,0,.11,0h.07v-.92h-.07c-.99,0-1.72.34-2.14.99"/>
      <path id="path16" class="st0" d="M80.88,57.22c-.89,0-1.42-.39-1.42-1.04s.47-.98,1.44-.98h1.78v.88c-.31.74-.94,1.14-1.8,1.14M81.16,51.83c-.95,0-1.84.3-2.45.82l-.05.04.44.72.07-.06c.48-.43,1.2-.68,1.92-.68,1.05,0,1.6.51,1.6,1.49v.29h-1.8c-2.05,0-2.35,1.1-2.35,1.75,0,1.09.87,1.79,2.23,1.79.86,0,1.55-.29,1.96-.81v.76h.91v-3.74c0-1.55-.85-2.37-2.47-2.37"/>
      <path id="path18" class="st0" d="M90.3,51.83c-.94,0-1.71.34-2.17.97v-.92h-.91v6.06h.94v-3.17c0-1.29.75-2.06,1.99-2.06,1.11,0,1.7.63,1.7,1.81v3.42h.94v-3.5c0-1.63-.93-2.6-2.5-2.6"/>
      <path id="path20" class="st0" d="M98.91,57.14c-1.25,0-2.13-.92-2.13-2.23s.87-2.23,2.13-2.23,2.12.92,2.12,2.23-.87,2.23-2.12,2.23M101.01,52.85c-.51-.65-1.27-1.01-2.17-1.01-1.75,0-3.02,1.29-3.02,3.07s1.27,3.08,3.02,3.08c.93,0,1.71-.37,2.21-1.06v1h.91v-8.48h-.94v3.39Z"/>
      <path id="path22" class="st0" d="M108.09,57.14c-1.25,0-2.13-.92-2.13-2.23s.87-2.23,2.13-2.23,2.12.92,2.12,2.23-.87,2.23-2.12,2.23M108.09,51.83c-1.79,0-3.08,1.29-3.08,3.07s1.3,3.08,3.08,3.08,3.07-1.3,3.07-3.08-1.29-3.07-3.07-3.07"/>
      <path id="path24" class="st0" d="M121.82,51.83c-.92,0-1.67.33-2.14.92v-3.3h-.94v8.48h.94v-3.17c0-1.29.75-2.06,1.99-2.06,1.11,0,1.7.63,1.7,1.81v3.42h.94v-3.5c0-1.63-.93-2.6-2.5-2.6"/>
      <path id="path26" class="st0" d="M130.42,57.14c-1.25,0-2.13-.92-2.13-2.23s.87-2.23,2.13-2.23,2.12.92,2.12,2.23-.87,2.23-2.12,2.23M130.42,51.83c-1.79,0-3.08,1.29-3.08,3.07s1.3,3.08,3.08,3.08,3.07-1.3,3.07-3.08-1.29-3.07-3.07-3.07"/>
      <path id="path28" class="st0" d="M139.07,56.86c-1.27,0-2.16-.86-2.16-2.09s.89-2.08,2.16-2.08,2.17.86,2.17,2.08-.89,2.09-2.17,2.09M141.25,52.86c-.51-.65-1.32-1.02-2.26-1.02-1.76,0-3.04,1.23-3.04,2.93s1.28,2.95,3.04,2.95c.92,0,1.72-.36,2.23-.99v.53c0,1.43-.65,2.07-2.11,2.07-.89,0-1.72-.29-2.28-.79l-.06-.06-.49.73.04.04c.62.58,1.66.93,2.8.93,2.04,0,3.03-.99,3.03-3.03v-5.26h-.91v.98Z"/>
      <path id="path30" class="st0" d="M147.68,57.22c-.89,0-1.42-.39-1.42-1.04s.47-.98,1.44-.98h1.78v.88c-.31.74-.94,1.14-1.8,1.14M147.96,51.83c-.95,0-1.84.3-2.45.82l-.05.04.44.72.07-.06c.48-.43,1.2-.68,1.92-.68,1.05,0,1.6.51,1.6,1.49v.29h-1.8c-2.05,0-2.35,1.1-2.35,1.75,0,1.09.87,1.79,2.23,1.79.86,0,1.55-.29,1.96-.81v.76h.91v-3.74c0-1.55-.85-2.37-2.47-2.37"/>
      <path id="path32" class="st0" d="M154.93,52.83v-.95h-.91v6.06h.94v-3.08c0-1.34.7-2.11,1.91-2.11.03,0,.05,0,.08,0,.04,0,.07,0,.11,0h.07v-.92h-.07c-.99,0-1.72.34-2.14.99"/>
      <path id="path34" class="st0" d="M162.32,52.67c1.09,0,1.89.73,2.02,1.82h-4.03c.13-1.09.93-1.82,2.01-1.82M162.32,51.83c-1.72,0-2.96,1.29-2.96,3.07s1.31,3.08,3.17,3.08c.97,0,1.8-.35,2.34-.99l.04-.05-.55-.63-.05.06c-.43.49-1.03.75-1.75.75-1.23,0-2.13-.76-2.25-1.91h4.94v-.07s0-.09,0-.14c0-.04,0-.08,0-.11,0-1.81-1.21-3.07-2.94-3.07"/>
      <path id="path36" class="st0" d="M170.25,54.53c-.86-.16-1.6-.29-1.6-.96,0-.57.53-.9,1.47-.9.65,0,1.24.17,1.7.49l.07.05.42-.77-.05-.04c-.5-.34-1.34-.56-2.13-.56-1.46,0-2.41.69-2.41,1.76,0,1.35,1.21,1.57,2.27,1.76.83.15,1.56.28,1.56.91,0,.59-.51.89-1.51.89-.75,0-1.56-.25-2.06-.65l-.07-.05-.43.75.05.04c.52.45,1.5.75,2.45.75,1.55,0,2.51-.67,2.51-1.76,0-1.29-1.18-1.51-2.23-1.7"/>
      <path id="path38" class="st0" d="M10.88,38.87h5.33v-10.83h15.08v-3.92h-15.08v-10h15.58v-3.92H10.88v28.67Z"/>
      <path id="path40" class="st0" d="M38.44,38.87h5.37V10.2h-5.37v28.67Z"/>
      <path id="path42" class="st0" d="M56.46,23.7v-9.54h8.37c3.83,0,5.83,1.58,5.83,4.67s-2.13,4.87-5.71,4.87h-8.5ZM75.38,18.58c0-5.46-3.92-8.37-11.21-8.37h-13.71v28.67h5.33v-11.21h7.92l6.87,11.21h5.92l-7.92-12.25c4.12-.79,6.79-3.92,6.79-8.04"/>
      <path id="path44" class="st0" d="M95.53,24.54h-7v-10.37h6.79c3.92,0,5.96,1.71,5.96,5.04s-2.04,5.33-5.75,5.33M95.32,10.2h-12.17v28.67h5.37v-10.37h7c7.08,0,11.08-3.75,11.08-9.37s-4-8.92-11.29-8.92"/>
      <path id="path46" class="st0" d="M118.63,10.2h-5.37v28.67h21.17v-3.96h-15.79V10.2Z"/>
      <path id="path48" class="st0" d="M186.52,22.24l12.12-12.04h-6.37l-13.5,12.79v-12.79h-5.37v28.67h5.37v-9.29l4.04-3.79,10.83,13.08h6.21l-13.33-16.62Z"/>
      <path id="path50" class="st0" d="M156.04,10.2h-5.42l-10.61,28.67h5.42l8.47-22.89,8.47,22.89h5.42l-10.61-28.67h-1.14Z"/>
      <path id="path52" class="st0" d="M150.8,38.87h6.22l-3.11-8.4-3.11,8.4Z"/>
    </g>
    <text class="st1" transform="translate(951.98 540)"><tspan x="0" y="0">Por favor cuéntame qué información o materiales necesitas para que el video pueda llevarse a cabo.</tspan></text>
  </g>
</svg>