<?xml version="1.0" encoding="utf-8"?>
<!-- Generator: Adobe Illustrator 25.2.3, SVG Export Plug-In . SVG Version: 6.00 Build 0)  -->
<svg version="1.1"
	 id="svg1" xmlns:inkscape="http://www.inkscape.org/namespaces/inkscape" xmlns:sodipodi="http://sodipodi.sourceforge.net/DTD/sodipodi-0.dtd" xmlns:svg="http://www.w3.org/2000/svg"
	 xmlns="http://www.w3.org/2000/svg" xmlns:xlink="http://www.w3.org/1999/xlink" x="0px" y="0px" viewBox="0 0 226.8 226.8"
	 style="enable-background:new 0 0 226.8 226.8;" xml:space="preserve">
<style type="text/css">
	.st0{fill-rule:evenodd;clip-rule:evenodd;fill:#1D1D1B;}
	.st1{fill:#1D1D1B;}
</style>
<path id="path3" class="st0" d="M199.3,16.8v9.8c0,22-9,42.1-23.9,56.8l-2.2-28.7l-24,11.9l4.8-36.9l-21.5,1.8l-6.2-14.8H199.3z
	 M167.9,90.2c-12.9,10.1-29,16.8-46.6,18.4l-0.2,65c0,9.3,10.9,16.9,24,16.7c1.1,2.5,10.7,8.9,25.6,11.5v8l-114.3,0v-8
	c15.3-2.4,24.9-8.9,26-11.5c13.1,0.1,24-7.4,24-16.7v-65c-44.2-3-78.3-40-78.6-82l-0.3-9.8h87.4l10.3,24.9l17.4-3l-3,41.6l27-11.9
	L167.9,90.2z"/>
<g>
	<path class="st1" d="M185.6,8c18.3,0,33.2,14.9,33.2,33.2v144.4c0,18.3-14.9,33.2-33.2,33.2H41.2C22.9,218.8,8,203.9,8,185.6V41.2
		C8,22.9,22.9,8,41.2,8H185.6 M185.6,0H41.2C18.5,0,0,18.5,0,41.2v144.4c0,22.6,18.5,41.2,41.2,41.2h144.4
		c22.6,0,41.2-18.5,41.2-41.2V41.2C226.8,18.5,208.2,0,185.6,0L185.6,0z"/>
</g>
</svg>
