<?xml version="1.0" encoding="utf-8"?>
<!-- Generator: Adobe Illustrator 25.2.3, SVG Export Plug-In . SVG Version: 6.00 Build 0)  -->
<svg version="1.1" id="Capa_1" xmlns="http://www.w3.org/2000/svg" xmlns:xlink="http://www.w3.org/1999/xlink" x="0px" y="0px"
	 viewBox="0 0 226.77 226.77" style="enable-background:new 0 0 226.77 226.77;" xml:space="preserve">
<style type="text/css">
	.st0{stroke:#000000;stroke-width:1.8122;stroke-miterlimit:10;}
</style>
<g>
	<path d="M185.59,8c18.29,0,33.18,14.88,33.18,33.18v144.41c0,18.29-14.88,33.18-33.18,33.18H41.18C22.88,218.77,8,203.89,8,185.59
		V41.18C8,22.88,22.88,8,41.18,8H185.59 M185.59,0H41.18C18.53,0,0,18.53,0,41.18v144.41c0,22.65,18.53,41.18,41.18,41.18h144.41
		c22.65,0,41.18-18.53,41.18-41.18V41.18C226.77,18.53,208.24,0,185.59,0L185.59,0z"/>
</g>
<rect x="140.99" y="59.17" transform="matrix(-0.7993 0.6009 -0.6009 -0.7993 334.4166 131.4342)" class="st0" width="8.53" height="124.79"/>
<rect x="172.19" y="43.58" transform="matrix(-0.9423 0.3348 -0.3348 -0.9423 378.2181 146.7563)" class="st0" width="8.53" height="124.79"/>
<rect x="120.44" y="76.45" transform="matrix(-0.6983 0.7158 -0.7158 -0.6983 311.1731 146.53)" class="st0" width="8.53" height="124.79"/>
<rect x="98.43" y="108.64" transform="matrix(-0.4143 0.9102 -0.9102 -0.4143 300.9106 148.4152)" class="st0" width="8.53" height="124.79"/>
<g>
	<g>
		<path d="M23.79,150.88c-0.07-2.02-0.02-4.03,0.08-6.05l0.88,0.12c-0.26,1.98-0.47,3.97-0.56,5.95L23.79,150.88z"/>
		<path d="M25.27,133.36c0.67-3.8,1.43-7.6,2.49-11.32l2.15,0.7c-1.18,3.62-2.21,7.28-3.08,10.99L25.27,133.36z"/>
		<path d="M31.34,110.97c0.68-1.82,1.43-3.61,2.2-5.4c0.77-1.78,1.58-3.55,2.43-5.31l2.8,1.46c-1.77,3.37-3.39,6.81-4.87,10.32
			L31.34,110.97z"/>
		<path d="M41.55,90c2.03-3.33,4.2-6.58,6.5-9.74l2.96,2.24c-2.3,3.02-4.48,6.15-6.52,9.35L41.55,90z"/>
		<path d="M55.43,71.15c2.6-2.92,5.32-5.73,8.15-8.43l2.71,2.88c-2.77,2.6-5.44,5.31-7.99,8.13L55.43,71.15z"/>
		<path d="M72.44,55.05c3.07-2.42,6.22-4.72,9.46-6.89l2.17,3.19c-3.14,2.15-6.2,4.41-9.16,6.79L72.44,55.05z"/>
		<polygon points="91.87,42.05 102.25,36.75 103.78,39.87 93.72,45.26 		"/>
		<polygon points="112.98,32.24 123.94,28.47 124.85,31.08 114.18,35.15 		"/>
		<path d="M135.11,25.45c3.76-0.83,7.55-1.52,11.31-2.28l0.36,1.56l-11.05,2.89L135.11,25.45z"/>
		<polygon points="157.85,21.48 163.86,20.91 163.92,21.31 158.02,22.35 		"/>
	</g>
</g>
</svg>
