<?xml version="1.0" encoding="utf-8"?>
<!-- Generator: Adobe Illustrator 25.2.3, SVG Export Plug-In . SVG Version: 6.00 Build 0)  -->
<svg version="1.1"
	 id="svg1" xmlns:inkscape="http://www.inkscape.org/namespaces/inkscape" xmlns:sodipodi="http://sodipodi.sourceforge.net/DTD/sodipodi-0.dtd" xmlns:svg="http://www.w3.org/2000/svg"
	 xmlns="http://www.w3.org/2000/svg" xmlns:xlink="http://www.w3.org/1999/xlink" x="0px" y="0px" viewBox="0 0 226.8 226.8"
	 style="enable-background:new 0 0 226.8 226.8;" xml:space="preserve">
<style type="text/css">
	.st0{fill:#1D1D1B;}
	.st1{fill-rule:evenodd;clip-rule:evenodd;}
</style>
<sodipodi:namedview  bordercolor="#000000" borderopacity="0.25" id="namedview1" inkscape:deskcolor="#d1d1d1" inkscape:pagecheckerboard="0" inkscape:pageopacity="0.0" inkscape:showpageshadow="2" pagecolor="#ffffff">
	
		<inkscape:page  bleed="0" height="127.1244" id="page1" inkscape:label="1" margin="1.0137933 1.3528 4.5556002 1.2668667" width="107.39573" x="0" y="0">
		</inkscape:page>
</sodipodi:namedview>
<g>
	<path class="st0" d="M185.6,8c18.3,0,33.2,14.9,33.2,33.2v144.4c0,18.3-14.9,33.2-33.2,33.2H41.2C22.9,218.8,8,203.9,8,185.6V41.2
		C8,22.9,22.9,8,41.2,8H185.6 M185.6,0H41.2C18.5,0,0,18.5,0,41.2v144.4c0,22.6,18.5,41.2,41.2,41.2h144.4
		c22.6,0,41.2-18.5,41.2-41.2V41.2C226.8,18.5,208.2,0,185.6,0L185.6,0z"/>
</g>
<g>
	<polygon class="st1" points="113.4,18.4 132.6,29 151.8,39.7 132.6,50.2 113.4,60.9 94.1,50.2 74.9,39.7 94.1,29 	"/>
	<polygon class="st1" points="72.4,88.3 72.4,66.6 72.4,44.8 91.3,55.4 110.3,66 110.4,87.7 110.4,109.4 91.4,98.8 	"/>
	<polygon class="st1" points="154.3,88.3 154.4,66.6 154.4,44.8 135.4,55.4 116.4,66 116.4,87.7 116.4,109.4 135.4,98.8 	"/>
	<path class="st1" d="M185.3,67.9c4.8,0,8.7,3.9,8.7,8.6v62.1c0,3.7-1.1,6.9-3.3,9.9l-29.1,38.3v21.5h-43V158
		c0-4.5,1.5-8.3,4.6-11.4l29.4-30.9c3.1-3.2,8.2-3.3,11.4-0.3c3.2,3.1,3.3,8.2,0.3,11.3l-22.9,24c-0.7,0.7-0.9,1.7-0.5,2.6
		c0.4,0.9,1.2,1.4,2.2,1.4h0.6c4.7,0,8.9-1.8,12.1-5.3l16.4-17.7c3-3.2,4.5-6.9,4.5-11.3V76.5C176.6,71.8,180.5,67.9,185.3,67.9
		L185.3,67.9z"/>
	<path class="st1" d="M41.5,67.1c-4.8,0-8.7,3.9-8.7,8.6v62.1c0,3.7,1.1,6.9,3.3,9.9l29,38.3v21.5h43.1v-50.4
		c0-4.5-1.6-8.3-4.6-11.4l-29.5-30.9c-3-3.2-8.2-3.3-11.3-0.3c-3.2,3.1-3.3,8.2-0.3,11.4L85.5,150c0.7,0.7,0.9,1.8,0.4,2.6
		c-0.4,0.9-1.1,1.4-2.1,1.4h-0.7c-4.7,0-8.8-1.8-12.1-5.3l-16.5-17.7c-2.9-3.2-4.4-6.9-4.4-11.3V75.7C50.1,71,46.3,67.1,41.5,67.1
		L41.5,67.1z"/>
</g>
</svg>
