<?xml version="1.0" encoding="UTF-8"?>
<svg id="Capa_1" xmlns="http://www.w3.org/2000/svg" version="1.1" viewBox="0 0 227.53 205.22">
  <!-- Generator: Adobe Illustrator 29.8.3, SVG Export Plug-In . SVG Version: 2.1.1 Build 3)  -->
  <defs>
    <style>
      .st0 {
        fill: none;
        stroke: #1a1414;
        stroke-linecap: round;
        stroke-linejoin: round;
        stroke-width: .76px;
      }
    </style>
  </defs>
  <path class="st0" d="M165.97,203.78l61.18-35.29M227.15,166.17v2.32M165.77,203.65l.2.13M165.97,201.46v2.32M165.77,201.4l.2.07M165.97,201.46l61.18-35.29M227.15,94.93l-1.99-1.19M225.17,93.74l-61.18,35.36M165.97,201.46l61.18-35.29M227.15,94.93v71.24M165.97,130.22l61.18-35.29M165.77,201.4l.2.07M165.97,130.22v71.24M163.99,129.09l1.99,1.13M163.99,129.09v.73M65.4,1.51l-1.99-1.13M63.41.38L2.23,35.67M2.23,35.67l1.99,1.19M2.23,35.67v.99M65.4,32.16v1.32M4.22,36.86L65.4,1.51M4.22,36.86v.73M95.19,80.56v-.2l-.07-.2-.13-.2-.13-.07-.13-.07-.26.07-.2.07-.2.13-.2.2-.2.2-.13.26-.13.26-.13.33v.73l.13.13.13.13.13.07h.2l.2-.07.2-.07.2-.2.26-.2.13-.26.13-.26.13-.26.07-.26v-.26M144.26,49.38v29.66M144.26,49.38l-1.99-1.19M142.27,48.18l-54.56,31.52M87.71,79.7l1.99,1.13M89.7,80.83l54.56-31.45M6.87,39.11v-3.84M166.63,127.57L6.87,35.27M168.62,126.38L8.85,34.15M6.87,35.27l1.99-1.13M166.63,127.57l1.99-1.19M113.4,59.9l-48-27.74M198.61,109.1l-23.5-13.57M65.4,32.16l-1.99-1.13M65.4,1.51l159.77,92.23M63.41,2.63l1.99-1.13M72.95,23.49v-.13l-.07-.13-.13-.07-.07-.13h-.2l-.07.07v.26l.07.13.07.07.13.13h.2l.07-.07v-.13M153.86,70.23l-.07-.13-.07-.13-.07-.13-.07-.07-.13-.07h-.07l-.07.07v.26l.07.13.07.13.13.07h.13l.07-.07.07-.07M63.41,31.04V2.63M144.26,77.71l54.36,31.38M63.41,31.04l54.29,31.32M63.41,2.63l159.77,92.3M223.18,94.93l1.99-1.19M155.51,109.49l10.33,5.96M74.6,62.82l10.4,5.96M153.53,110.62l10.33,5.96M72.62,63.94l10.4,5.96M166.24,98.04v-.07l.07-.07.07-.07.13.07.07.07.13.13.07.13v.2l-.07.07-.13.07-.07-.07-.13-.07-.07-.13-.07-.13v-.13M144.26,77.71l28.87,16.69M113.4,59.9l4.3,2.45M113.4,61.23v-1.32M173.12,109.69l-13.04-7.55M175.11,95.52v13.04M175.11,95.52l-1.99-1.13M173.12,94.4v15.29M173.12,109.69l1.99-1.13M41.23,52.82l13.57-7.81M56.79,28.52l-28.87,16.69M54.8,27.39l1.99,1.13M54.8,27.39l-28.87,16.62M105.72,56.79l1.99,1.13M105.72,56.79l-28.87,16.62M107.71,57.92l-28.8,16.69M79.24,57.85l-.73-.4M79.24,57.85v2.32M64.54,66.33l14.7-8.48M79.24,60.17l-12.71,7.28M63.88,65.93l14.63-8.47M78.51,57.45v-.26M77.91,46l.07-.13.07-.13.07-.13.07-.07h.2l.07.07v.2l-.07.13-.07.13-.13.07-.07.07h-.07l-.07-.07-.07-.13M63.61,65.8l15.63-9M79.24,41.43v15.36M79.24,41.43l-28.87,16.69M77.18,40.3l2.05,1.13M77.18,40.3l-28.8,16.69M4.55,37.79l-2.12-1.26M.38,37.72l2.05-1.19M4.55,37.79l5.23,3.05,5.23,3.11,5.23,3.18,5.23,3.24,5.23,3.31,5.23,3.38,5.23,3.44,5.23,3.44,5.23,3.58,5.23,3.58,5.16,3.71M4.55,37.79l-1.99,1.13M62.02,74.8l2.18,1.46,2.12,1.52,2.18,1.39,2.18,1.39,2.12,1.39,2.18,1.32,2.12,1.32,2.18,1.26M62.02,74.8l-1.99,1.13M79.3,85.86l9.53,5.5M79.3,85.86l-1.99,1.13M88.84,91.35l2.18,1.26,2.18,1.19,2.12,1.19,2.18,1.06,2.12,1.13,2.18,1.06,2.18.99,2.12.99M88.84,91.35l-1.99,1.19M106.12,100.23l5.23,2.32,5.16,2.45,5.23,2.45,5.23,2.58,5.23,2.58,5.23,2.71,5.23,2.71,5.23,2.85,5.3,2.85,5.23,2.91,5.23,2.98M106.12,100.23l-1.99,1.13M165.77,203.65v-72.77M163.79,204.84l1.99-1.19M163.66,129.62l-1.99,1.19M163.79,132.01l1.99-1.13M165.77,130.88l-2.12-1.26M104.13,101.35l5.23,2.38,5.16,2.38,5.23,2.52,5.23,2.52,5.23,2.65,5.23,2.65,5.23,2.78,5.23,2.78,5.23,2.85,5.3,2.98,5.23,2.98M86.85,92.55l2.18,1.19,2.18,1.19,2.12,1.19,2.18,1.13,2.12,1.06,2.18,1.06,2.12.99,2.18.99M77.32,86.98l9.53,5.56M60.04,75.93l2.18,1.52,2.12,1.46,2.18,1.46,2.18,1.39,2.12,1.39,2.18,1.32,2.12,1.26,2.18,1.26M2.56,38.91l5.23,3.11,5.23,3.11,5.23,3.18,5.23,3.24,5.23,3.31,5.23,3.31,5.23,3.44,5.23,3.51,5.23,3.51,5.23,3.64,5.16,3.64M2.56,38.91l-2.18-1.19M.38,37.72v72.77M.38,110.49l163.41,94.35M163.79,204.84v-72.83M163.79,132.01l-2.12-1.19M188.62,104.6l-1.99-1.13M186.63,103.47l-28.87,16.69M188.62,104.6l-28.87,16.69M107.71,57.92l8.87,5.1M105.72,59.04l1.99-1.13M105.72,59.04l8.87,5.16M105.72,69.31v-10.26M137.7,75.2l-1.99-1.13M135.71,74.07l-28.87,16.69M137.7,75.2l-28.87,16.69M122.14,99.56l13.57-7.88M135.71,76.39v15.29M135.71,91.68l7.15,4.11M158.09,86.98l-20.39-11.79M135.71,76.39l1.99-1.19M156.11,88.18l-20.39-11.79M156.11,88.18l1.99-1.19M54.8,45.01v-15.36M61.96,49.11l-7.15-4.11M56.79,28.52l20.39,11.79M54.8,29.64l1.99-1.13M54.8,29.64l20.39,11.79M75.2,41.43l1.99-1.13M197.49,109.76l-8.87-5.16M186.63,105.79l1.99-1.19M195.5,110.89l-8.87-5.1M186.63,105.79v10.2M160.08,106.85l-12.65,7.28M160.08,106.85v-2.32M145.45,113l14.63-8.48M159.42,104.13l.66.4M144.79,112.61l14.63-8.47M159.42,103.87v.26M159.35,92.41v-.13l-.07-.07h-.2l-.07.13-.13.07v.13l-.07.13.07.13v.07h.2l.13-.07.07-.13.07-.13v-.13M160.08,103.47v-15.29M144.52,112.47l15.56-9M160.08,88.18l-28.87,16.62M160.08,88.18l-1.99-1.19M158.09,86.98l-28.87,16.69"/>
</svg>