<?xml version="1.0" encoding="UTF-8"?>
<svg id="Capa_1" xmlns="http://www.w3.org/2000/svg" version="1.1" viewBox="0 0 94.57 102.04">
  <!-- Generator: Adobe Illustrator 29.8.3, SVG Export Plug-In . SVG Version: 2.1.1 Build 3)  -->
  <defs>
    <style>
      .st0 {
        fill: none;
        stroke: #1a1413;
        stroke-miterlimit: 10;
        stroke-width: .37px;
      }
    </style>
  </defs>
  <polyline class="st0" points="29.96 37.96 42.28 30.84 67.17 45.19"/>
  <line class="st0" x1="26.69" y1="69.09" x2="26.9" y2="69.22"/>
  <polyline class="st0" points="53.4 84.48 53.45 84.52 53.45 84.48"/>
  <polyline class="st0" points="54.73 100.23 54.73 101.72 94.38 78.85 94.38 77.32 54.73 100.23"/>
  <line class="st0" x1="1.34" y1="70.91" x2="54.73" y2="101.72"/>
  <polyline class="st0" points="1.34 70.91 1.34 69.42 54.73 100.23"/>
  <line class="st0" x1="42.28" y1=".9" x2="41" y2=".16"/>
  <line class="st0" x1="42.28" y1="30.84" x2="42.28" y2="14.38"/>
  <line class="st0" x1="15.53" y1="62.73" x2="2.67" y2="70.17"/>
  <line class="st0" x1="2.67" y1="23.81" x2="42.28" y2=".9"/>
  <line class="st0" x1="2.67" y1="70.17" x2="2.67" y2="55.28"/>
  <line class="st0" x1="2.67" y1="26.29" x2="2.67" y2="23.81"/>
  <line class="st0" x1="1.34" y1="69.42" x2="2.67" y2="70.17"/>
  <line class="st0" x1="1.34" y1="23.03" x2="2.67" y2="23.81"/>
  <line class="st0" x1="1.34" y1="69.42" x2="1.34" y2="54.54"/>
  <polyline class="st0" points="1.34 25.67 1.34 23.03 41 .16"/>
  <polyline class="st0" points="54.73 53.88 54.73 100.23 94.38 77.32 94.38 30.97 54.73 53.88"/>
  <line class="st0" x1="53.45" y1="99.49" x2="54.73" y2="100.23"/>
  <line class="st0" x1="53.45" y1="53.09" x2="54.73" y2="53.88"/>
  <line class="st0" x1="53.45" y1="99.49" x2="53.45" y2="84.48"/>
  <polyline class="st0" points="53.45 55.61 53.45 53.09 93.1 30.22 94.38 30.97"/>
  <polyline class="st0" points="27.93 40.85 1.47 25.63 .18 26.38 .18 53.88"/>
  <polyline class="st0" points="27.93 41.18 27.93 40.85 26.61 41.64 .18 26.38"/>
  <polyline class="st0" points="26.9 68.97 26.61 69.14 26.61 41.64"/>
  <line class="st0" x1=".18" y1="53.88" x2="26.61" y2="69.14"/>
  <polyline class="st0" points="2.75 26.34 2.75 23.73 53.53 53.05 54.81 52.3 4.03 22.99 2.75 23.73"/>
  <path class="st0" d="M66.19,22.14c0,.14.1.31.22.38.12.07.23,0,.23-.13,0-.14-.1-.31-.22-.38-.12-.07-.23,0-.23.13"/>
  <path class="st0" d="M49.11,12.3c0,.14.1.31.22.38.12.07.23,0,.23-.13,0-.14-.1-.31-.22-.38-.12-.07-.23,0-.23.13"/>
  <path class="st0" d="M83.31,32.02c0,.14.1.31.22.38.12.07.23,0,.23-.13,0-.14-.1-.31-.22-.38-.12-.07-.23,0-.23.13"/>
  <line class="st0" x1="42.28" y1=".9" x2="93.1" y2="30.22"/>
  <line class="st0" x1="41" y1="13.64" x2="81.44" y2="36.96"/>
  <polyline class="st0" points="41 13.64 41 1.65 91.78 30.97 93.1 30.22"/>
  <line class="st0" x1="42.28" y1=".9" x2="41" y2="1.65"/>
  <polyline class="st0" points="12.8 40.73 12.8 41.8 22.31 47.3 22.56 47.14 23.09 46.35 24.21 45.69"/>
  <polyline class="st0" points="14.7 39.61 12.8 40.73 22.31 46.18 22.31 47.3"/>
  <polyline class="st0" points="14.7 39.61 24.21 45.11 22.31 46.18"/>
  <line class="st0" x1="24.21" y1="45.69" x2="24.21" y2="45.11"/>
  <polyline class="st0" points="27.39 49.16 27.39 50.24 36.9 55.74 37.15 55.57 37.69 54.79 38.81 54.12"/>
  <polyline class="st0" points="29.3 48.05 27.39 49.16 36.9 54.62 36.9 55.74"/>
  <polyline class="st0" points="29.3 48.05 38.81 53.55 36.9 54.62"/>
  <line class="st0" x1="38.81" y1="54.12" x2="38.81" y2="53.55"/>
  <polyline class="st0" points="53.45 55.57 28.18 41.02 26.9 41.76 26.9 69.26"/>
  <polyline class="st0" points="54.6 56.27 53.32 57.02 26.9 41.76"/>
  <polyline class="st0" points="54.6 83.82 53.32 84.52 53.32 57.02"/>
  <line class="st0" x1="26.9" y1="69.26" x2="53.32" y2="84.52"/>
</svg>