<?xml version="1.0" encoding="utf-8"?>
<!-- Generator: Adobe Illustrator 25.2.3, SVG Export Plug-In . SVG Version: 6.00 Build 0)  -->
<svg version="1.1"
	 id="svg2" xmlns:cc="http://creativecommons.org/ns#" xmlns:dc="http://purl.org/dc/elements/1.1/" xmlns:rdf="http://www.w3.org/1999/02/22-rdf-syntax-ns#" xmlns:svg="http://www.w3.org/2000/svg"
	 xmlns="http://www.w3.org/2000/svg" xmlns:xlink="http://www.w3.org/1999/xlink" x="0px" y="0px" viewBox="0 0 226.8 226.8"
	 style="enable-background:new 0 0 226.8 226.8;" xml:space="preserve">
<style type="text/css">
	.st0{fill:#2B2B2A;}
	.st1{fill:#1D1D1B;}
</style>
<g>
	<g id="g24" transform="translate(36.5542,20.1369)">
		<path id="path26" class="st0" d="M76.8,143.2c-16.6,0-30.2-13.5-30.2-30.2c0-12.9,19-46.8,30.2-65.1C88,66.2,107,100.1,107,113
			C107,129.6,93.5,143.2,76.8,143.2 M81.1,35.6c-0.9-1.5-2.5-2.3-4.3-2.3c-1.7,0-3.3,0.9-4.3,2.3c-3.7,5.8-36,57.1-36,77.4
			c0,22.2,18.1,40.2,40.2,40.2s40.2-18.1,40.2-40.2C117.1,92.7,84.8,41.4,81.1,35.6"/>
	</g>
	<g id="g28" transform="translate(42.2456,30.8559)">
		<path id="path30" class="st0" d="M90.3,96.4c-2.8,0-5,2.3-5,5c0,7.7-6.3,14-14,14c-2.8,0-5,2.3-5,5c0,2.8,2.3,5,5,5
			c13.3,0,24-10.8,24-24.1C95.3,98.7,93.1,96.4,90.3,96.4"/>
	</g>
	<g id="g32" transform="translate(66.3824,38.9577)">
		<path id="path34" class="st0" d="M147.3,61.1c-2-2-5.2-2-7.1,0l-43.8,43.8c-2,2-2,5.2,0,7.1c1,1,2.3,1.5,3.6,1.5
			c1.3,0,2.6-0.5,3.6-1.5l43.8-43.8C149.2,66.2,149.2,63,147.3,61.1"/>
	</g>
	<g id="g36" transform="translate(58.9857,20.4187)">
		<path id="path38" class="st0" d="M129.8,141.9H99.4c-2.8,0-5,2.3-5,5c0,2.8,2.3,5,5,5h30.4c2.8,0,5-2.3,5-5
			C134.8,144.2,132.6,141.9,129.8,141.9"/>
	</g>
	<g id="g40" transform="translate(20.8323,23.3508)">
		<path id="path42" class="st0" d="M39.7,129.1c1.3,0,2.6-0.5,3.6-1.5c2-2,2-5.2,0-7.1L-0.6,76.7c-2-2-5.2-2-7.1,0c-2,2-2,5.2,0,7.1
			l43.8,43.8C37.1,128.6,38.4,129.1,39.7,129.1"/>
	</g>
	<g id="g44" transform="translate(22.5825,20.4187)">
		<path id="path46" class="st0" d="M43.8,141.9H13.4c-2.8,0-5,2.3-5,5c0,2.8,2.3,5,5,5h30.4c2.8,0,5-2.3,5-5
			C48.9,144.2,46.6,141.9,43.8,141.9"/>
	</g>
</g>
<g>
	<path class="st1" d="M185.6,8c18.3,0,33.2,14.9,33.2,33.2v144.4c0,18.3-14.9,33.2-33.2,33.2H41.2C22.9,218.8,8,203.9,8,185.6V41.2
		C8,22.9,22.9,8,41.2,8H185.6 M185.6,0H41.2C18.5,0,0,18.5,0,41.2v144.4c0,22.6,18.5,41.2,41.2,41.2h144.4
		c22.6,0,41.2-18.5,41.2-41.2V41.2C226.8,18.5,208.2,0,185.6,0L185.6,0z"/>
</g>
</svg>
