<?xml version="1.0" encoding="utf-8"?>
<!-- Generator: Adobe Illustrator 25.2.3, SVG Export Plug-In . SVG Version: 6.00 Build 0)  -->
<svg version="1.1"
	 id="svg1" xmlns:inkscape="http://www.inkscape.org/namespaces/inkscape" xmlns:sodipodi="http://sodipodi.sourceforge.net/DTD/sodipodi-0.dtd" xmlns:svg="http://www.w3.org/2000/svg"
	 xmlns="http://www.w3.org/2000/svg" xmlns:xlink="http://www.w3.org/1999/xlink" x="0px" y="0px" viewBox="0 0 226.8 226.8"
	 style="enable-background:new 0 0 226.8 226.8;" xml:space="preserve">
<style type="text/css">
	.st0{fill:#959494;}
	.st1{fill:#859F9F;}
	.st2{fill:#1D1D1B;}
</style>
<sodipodi:namedview  bordercolor="#000000" borderopacity="0.25" id="namedview1" inkscape:deskcolor="#d1d1d1" inkscape:pagecheckerboard="0" inkscape:pageopacity="0.0" inkscape:showpageshadow="2" pagecolor="#ffffff">
	
		<inkscape:page  bleed="0" height="441.62668" id="page1" inkscape:label="1" margin="9.5981064 11.688 9.9013329 12.314227" width="446.10934" x="0" y="0">
		</inkscape:page>
</sodipodi:namedview>
<g>
	<path d="M13,182.7c0.2-0.2,0.3-0.4,0.4-0.7c0.1-1,0.5-1.9,0.8-2.8c4.1-10.3,8.3-20.7,12.4-31c0.3-0.9,0.7-1.7,1-2.6
		c0.3,0,0.4,0.2,0.5,0.3c4,4.5,8,9.1,12.1,13.6c0.2,0.3,0.4,0.6,0.4,0.9c0.2,1.5,0.3,3,0.5,4.6c0.1,0.4,0,0.8-0.2,1.2
		c-2.8,7-5.6,14-8.4,21c-1.3,3.2-3.6,5.3-7,6.1c-5.5,1.4-11.1-2.2-12.2-7.8c0-0.2-0.1-0.4-0.1-0.7c0-0.1-0.1-0.2-0.3-0.2
		C13,184,13,183.3,13,182.7z"/>
	<path class="st0" d="M213.6,182.1c0.1,0,0.1,0,0.2,0c0,1,0,2,0,2.9l-0.1,0l-0.1,0C213,184,213,183,213.6,182.1z"/>
	<path d="M57.1,105.5c-1.7,6.9-3.5,13.9-5.2,20.8c0,0.1-0.1,0.3-0.1,0.4c-0.1,0.3,0,0.5,0.2,0.7c0.2,0.3,0.5,0.5,0.7,0.8
		c4.1,4.6,8.2,9.3,12.3,13.9c1.5,1.7,2.8,3.7,3.7,5.8c0.8,1.9,1.3,3.8,1.5,5.9c0.3,2.7,0.6,5.4,0.9,8.2c0.2,2.1,0.4,4.2,0.7,6.2
		c0.2,2.1,0.5,4.2,0.7,6.3c0.2,2.1,0.4,4.2,0.7,6.2c0.1,1,0.3,1.9,0.2,2.9c-0.1,3.2-1.4,5.9-3.9,7.8c-6.1,4.6-14.6,1-15.9-6.2
		c-0.2-0.9-0.2-1.8-0.3-2.7c-0.3-2.9-0.6-5.7-0.9-8.6c-0.2-2.1-0.4-4.2-0.7-6.2c-0.3-2.7-0.6-5.4-0.9-8.1c-0.1-1.2-0.3-2.3-0.4-3.5
		c0-0.5-0.2-0.8-0.6-1.2c-3.1-3.5-6.2-7-9.3-10.5c-3.7-4.2-7.4-8.4-11.1-12.5c-2.3-2.6-3.9-5.6-4.7-9c-0.7-2.9-0.7-5.9,0-8.8
		c1.6-7.2,3.3-14.3,4.9-21.4c0.3-1.2,0.6-2.5,0.9-3.7c1.6-7,7.1-13.6,15.7-15.4c4.8-1,9.4-0.2,13.7,2.3c7.1,4.3,12.1,10.3,14.9,18.2
		c1.2,3.3,2.3,6.7,3.4,10.1c0.3,0.9,0.3,0.9,1.2,1.5c1.1,0.7,2.3,1.4,3.4,2.1c0.2,0.1,0.4,0.3,0.7,0.4c0.2-0.2,0.1-0.5,0.1-0.7
		c0-4.2,0-8.4,0-12.6c0-5.2,0-10.4,0-15.6c0-0.3,0-0.7,0-1c0-2.5,2-4.9,4.9-5c0.3,0,0.5,0,0.8,0c16.2,0,32.4,0,48.7,0
		c0.5,0,0.9,0,1.4,0.1c2.5,0.3,4.3,2.3,4.4,4.9c0,0.4,0,0.7,0,1.1c0,9.3,0,18.5,0,27.8c0,0.4,0,0.7,0,1c0.2,0.2,0.3,0,0.5-0.1
		c1.3-0.9,2.7-1.7,4-2.6c0.4-0.2,0.6-0.5,0.7-0.9c1.1-3.3,2.2-6.6,3.3-9.8c2.7-7.9,7.6-14.1,14.7-18.6c2.4-1.5,5-2.4,7.8-2.8
		c3.8-0.5,7.4,0.1,10.9,1.8c5.8,2.8,9.6,7.4,11.1,13.6c2,8.4,4,16.8,5.8,25.2c1.5,6.7-0.1,12.7-4.6,17.9c-3.6,4.1-7.2,8.2-10.8,12.2
		c-3.2,3.6-6.4,7.2-9.5,10.8c-0.4,0.5-0.6,0.9-0.7,1.5c-0.3,2.9-0.6,5.8-0.9,8.8c-0.4,3.3-0.7,6.5-1.1,9.8c-0.3,2.7-0.6,5.4-0.9,8.1
		c-0.1,1.1-0.2,2.3-0.6,3.4c-1.3,3.9-4,6.2-8.1,6.9c-5,0.9-10.7-2.6-11.4-8.8c-0.1-0.7-0.1-1.4,0-2.1c0.2-1.9,0.4-3.9,0.6-5.8
		c0.2-2.1,0.5-4.3,0.7-6.4s0.5-4.3,0.7-6.4c0.2-2.1,0.4-4.2,0.7-6.2c0.2-2,0.3-4,0.7-5.9c0.7-3.4,2.1-6.4,4.4-9.1
		c1.6-1.9,3.3-3.8,5-5.7c2.7-3.1,5.4-6.2,8.2-9.2c0,0,0.1-0.1,0.1-0.1c0.5-0.6,0.5-0.4,0.3-1.4c-0.2-0.8-0.4-1.6-0.6-2.4
		c-1.5-5.9-2.9-11.8-4.4-17.6c-0.1-0.3-0.2-0.6-0.3-0.9c-0.2,0.2-0.3,0.4-0.3,0.6c-0.6,1.8-1.2,3.5-1.8,5.3
		c-1.5,4.7-4.4,8.2-8.5,10.9c-4.9,3.1-9.7,6.2-14.6,9.3c-2.1,1.3-4.3,2-6.8,2c-15.2,0-30.4,0-45.6,0c-1.1,0-2.2,0-3.2,0
		c-2.3-0.1-4.5-0.6-6.5-1.9c-5-3.2-10-6.3-14.9-9.5c-3.9-2.5-6.7-6-8.2-10.4c-0.7-1.9-1.3-3.9-2-5.8
		C57.4,105.6,57.4,105.3,57.1,105.5z"/>
	<path d="M213.6,182.1c0,1,0,2,0,3c0,0.9-0.3,1.7-0.6,2.4c-1.6,3.8-5.3,6.3-9.4,6.1c-4.2-0.2-7.3-2.2-9-6.1c-1-2.3-1.9-4.6-2.8-7
		c-1.9-4.7-3.7-9.3-5.6-14c-0.2-0.6-0.4-1.2-0.3-1.9c0.2-1.3,0.3-2.7,0.4-4c0-0.5,0.2-0.9,0.6-1.3c2.7-3,5.3-6,8-9
		c1.3-1.5,2.6-3,4-4.5c0.1-0.1,0.2-0.2,0.3-0.4c0.3,0.2,0.4,0.5,0.5,0.8c1.9,4.8,3.9,9.7,5.8,14.5c2.5,6.2,5,12.4,7.4,18.6
		C213.2,180.3,213.6,181.1,213.6,182.1z"/>
	<path d="M53.4,33.2c7.9-0.1,15,6.4,15,15.1c-0.1,8.7-7.3,15-15.1,14.9c-7.9,0-15-6.4-15-15.1C38.4,39.6,45.4,33.1,53.4,33.2z"/>
	<path d="M158.6,48.3c-0.1-8.4,6.8-15,14.9-15.1c8.3,0,15.1,6.7,15.1,15c0,8.3-6.8,15-14.9,15.1C165.7,63.3,158.6,56.7,158.6,48.3z"
		/>
	<path class="st1" d="M57.1,105.5c0-0.1,0-0.2,0-0.3c0.1-0.1,0.2,0,0.2,0.1c0.1,0.1,0.1,0.2,0.1,0.4
		C57.3,105.7,57.2,105.6,57.1,105.5z"/>
</g>
<g>
	<path class="st2" d="M185.6,8c18.3,0,33.2,14.9,33.2,33.2v144.4c0,18.3-14.9,33.2-33.2,33.2H41.2C22.9,218.8,8,203.9,8,185.6V41.2
		C8,22.9,22.9,8,41.2,8H185.6 M185.6,0H41.2C18.5,0,0,18.5,0,41.2v144.4c0,22.6,18.5,41.2,41.2,41.2h144.4
		c22.6,0,41.2-18.5,41.2-41.2V41.2C226.8,18.5,208.2,0,185.6,0L185.6,0z"/>
</g>
</svg>
