<?xml version="1.0" encoding="utf-8"?>
<!-- Generator: Adobe Illustrator 25.2.3, SVG Export Plug-In . SVG Version: 6.00 Build 0)  -->
<svg version="1.1"
	 id="svg1" xmlns:inkscape="http://www.inkscape.org/namespaces/inkscape" xmlns:sodipodi="http://sodipodi.sourceforge.net/DTD/sodipodi-0.dtd" xmlns:svg="http://www.w3.org/2000/svg"
	 xmlns="http://www.w3.org/2000/svg" xmlns:xlink="http://www.w3.org/1999/xlink" x="0px" y="0px" viewBox="0 0 226.8 226.8"
	 style="enable-background:new 0 0 226.8 226.8;" xml:space="preserve">
<style type="text/css">
	.st0{fill-rule:evenodd;clip-rule:evenodd;fill:#1D1D1B;}
	.st1{fill:#1D1D1B;}
</style>
<sodipodi:namedview  bordercolor="#000000" borderopacity="0.25" id="namedview1" inkscape:deskcolor="#d1d1d1" inkscape:pagecheckerboard="0" inkscape:pageopacity="0.0" inkscape:showpageshadow="2" pagecolor="#ffffff">
	
		<inkscape:page  bleed="0" height="432.88934" id="page1" inkscape:label="1" margin="12.068213 12.068 11.112 13.740533" width="435.556" x="0" y="0">
		</inkscape:page>
</sodipodi:namedview>
<g>
	<path id="path1" class="st0" d="M58.9,169.5V86.2H42.9l28.3-56.4c3.7-7.7,3.7-7.7,7.3-0.3L107,86.2H90.9v83.3H58.9z"/>
	<path id="path3" class="st0" d="M135.7,169.5V86.2h-16.1L148,29.8c3.7-7.7,3.7-7.7,7.4-0.3l28.4,56.7h-16.2v83.3H135.7z"/>
	<path id="path5" class="st0" d="M43.1,202.7h140.4v-21H43.1V202.7z"/>
</g>
<g>
	<path class="st1" d="M185.6,8c18.3,0,33.2,14.9,33.2,33.2v144.4c0,18.3-14.9,33.2-33.2,33.2H41.2C22.9,218.8,8,203.9,8,185.6V41.2
		C8,22.9,22.9,8,41.2,8H185.6 M185.6,0H41.2C18.5,0,0,18.5,0,41.2v144.4c0,22.6,18.5,41.2,41.2,41.2h144.4
		c22.6,0,41.2-18.5,41.2-41.2V41.2C226.8,18.5,208.2,0,185.6,0L185.6,0z"/>
</g>
</svg>
