<?xml version="1.0" encoding="utf-8"?>
<!-- Generator: Adobe Illustrator 25.2.3, SVG Export Plug-In . SVG Version: 6.00 Build 0)  -->
<svg version="1.1"
	 id="svg1" xmlns:inkscape="http://www.inkscape.org/namespaces/inkscape" xmlns:sodipodi="http://sodipodi.sourceforge.net/DTD/sodipodi-0.dtd" xmlns:svg="http://www.w3.org/2000/svg"
	 xmlns="http://www.w3.org/2000/svg" xmlns:xlink="http://www.w3.org/1999/xlink" x="0px" y="0px" viewBox="0 0 226.8 226.8"
	 style="enable-background:new 0 0 226.8 226.8;" xml:space="preserve">
<style type="text/css">
	.st0{fill:#1D1D1B;}
	.st1{fill-rule:evenodd;clip-rule:evenodd;fill:#1D1D1B;}
</style>
<sodipodi:namedview  bordercolor="#000000" borderopacity="0.25" id="namedview1" inkscape:deskcolor="#d1d1d1" inkscape:pagecheckerboard="0" inkscape:pageopacity="0.0" inkscape:showpageshadow="2" pagecolor="#ffffff">
	
		<inkscape:page  bleed="0" height="441.62668" id="page1" inkscape:label="1" margin="8.7207069 9.1013336 9.2200003 9.296627" width="442.02399" x="0" y="0">
		</inkscape:page>
</sodipodi:namedview>
<g>
	<path class="st0" d="M185.6,8c18.3,0,33.2,14.9,33.2,33.2v144.4c0,18.3-14.9,33.2-33.2,33.2H41.2C22.9,218.8,8,203.9,8,185.6V41.2
		C8,22.9,22.9,8,41.2,8H185.6 M185.6,0H41.2C18.5,0,0,18.5,0,41.2v144.4c0,22.6,18.5,41.2,41.2,41.2h144.4
		c22.6,0,41.2-18.5,41.2-41.2V41.2C226.8,18.5,208.2,0,185.6,0L185.6,0z"/>
</g>
<path id="path1" class="st1" d="M196.3,103.7c-4.1-10.3-11.9-16.1-21-16.1c-8.1,0-16,5.5-20.3,15.9c-4.3-10-12-15.9-21.1-15.9
	c-5.7,0-11.3,2.7-15.5,7.9v90.6c0,13.2-11.4,24.5-25.3,24.5c-14,0-25.3-11.4-25.3-25.3c0-5.3,1.8-10.7,4.8-14.9l9.6,5.6
	c-2.8,2.8-4.5,6.9-4.5,10.8c0,8.5,6.9,15.4,15.4,15.4c8.5,0,15.4-6.9,15.4-15.4V95.1c-4.3-4.9-9.9-7.5-16-7.5
	c-8.3,0-16,5.5-20.3,15.9c-4.4-10-12.1-15.9-21.2-15.9c-8.3,0-16,5.5-20.3,15.9c0-58.7,37.1-87.3,82.7-87.3
	C159,16.2,196.3,44.7,196.3,103.7"/>
</svg>
