<?xml version="1.0" encoding="utf-8"?>
<!-- Generator: Adobe Illustrator 25.2.3, SVG Export Plug-In . SVG Version: 6.00 Build 0)  -->
<svg version="1.1"
	 id="svg1" xmlns:inkscape="http://www.inkscape.org/namespaces/inkscape" xmlns:sodipodi="http://sodipodi.sourceforge.net/DTD/sodipodi-0.dtd" xmlns:svg="http://www.w3.org/2000/svg"
	 xmlns="http://www.w3.org/2000/svg" xmlns:xlink="http://www.w3.org/1999/xlink" x="0px" y="0px" viewBox="0 0 226.8 226.8"
	 style="enable-background:new 0 0 226.8 226.8;" xml:space="preserve">
<style type="text/css">
	.st0{fill:#1D1D1B;}
</style>
<sodipodi:namedview  bordercolor="#000000" borderopacity="0.25" id="namedview1" inkscape:deskcolor="#d1d1d1" inkscape:pagecheckerboard="0" inkscape:pageopacity="0.0" inkscape:showpageshadow="2" pagecolor="#ffffff">
	
		<inkscape:page  bleed="0" height="151.18134" id="page1" inkscape:label="1" margin="11.16048 43.298668 9.9613333 50.680668" width="226.772" x="0" y="0">
		</inkscape:page>
</sodipodi:namedview>
<g>
	<path id="path3" class="st0" d="M116.7,217.7c0-10.7,0-21.3,0.1-31.9c0-0.7,1.3-1.7,2.2-1.9c12.8-4.3,25.6-8.6,38.4-12.8
		c3.6-1.2,7.2-2.4,11.1-3.7c0.1,0.9,0.2,1.5,0.2,2.1c0,10.1,0,20.2,0,30.3c0,1.2,0,2.2-1.6,2.7c-16.4,5-32.8,10.1-49.1,15.2
		C117.6,217.7,117.4,217.7,116.7,217.7"/>
	<path id="path5" class="st0" d="M170.1,113.1c0,11.1,0,22-0.1,33c0,0.6-0.7,1.6-1.3,1.8c-16.5,5.2-33,10.3-49.6,15.4
		c-0.2,0.1-0.5,0-1,0c0-3,0-6,0-8.9c0-7.4,0-14.9,0-22.3c0-1.3,0.3-2,1.6-2.5c16.5-5.4,33-10.9,49.5-16.4
		C169.4,113,169.6,113.1,170.1,113.1"/>
	<path id="path7" class="st0" d="M107.4,217.6c-3.8-1.2-7.4-2.3-11.1-3.4c-12.6-3.9-25.1-7.8-37.7-11.7c-1.3-0.4-2.1-0.8-2-2.4
		c0.1-10.5,0-21.1,0.1-31.6c0-0.3,0.1-0.6,0.2-1.2c4.3,1.4,8.5,2.8,12.7,4.2c12,4,24,8,36,11.9c1.2,0.4,2.1,0.7,2.1,2.4
		c-0.1,10.2,0,20.4-0.1,30.6C107.6,216.7,107.5,217,107.4,217.6"/>
	<path id="path9" class="st0" d="M58.4,112.8c10.2,3.4,20.2,6.7,30.2,10c6,2,12,4.1,18.1,6c1.7,0.5,2.5,1.3,2.5,3.2
		c-0.1,9.8,0,19.5-0.1,29.3c0,0.5-0.1,1-0.1,1.9c-4.5-1.4-8.8-2.7-13.1-4c-11.9-3.7-23.8-7.4-35.7-11.1c-1.2-0.4-2.1-0.7-2.1-2.3
		c0.1-10.5,0-21.1,0-31.6C58.2,113.9,58.3,113.5,58.4,112.8"/>
	<path id="path11" class="st0" d="M64,107.4c11.5-3.4,22.6-6.6,33.7-9.9c5.5-1.6,11-3.3,16.6-4.8c1-0.3,2.3-0.4,3.3-0.1
		c15,4.9,29.9,9.8,44.9,14.8c0.1,0,0.2,0.2,0.6,0.6c-5,1.5-9.8,3-14.6,4.6c-10.7,3.4-21.4,6.7-32.2,10c-0.9,0.3-2.1,0.5-3,0.2
		c-16.1-5-32.3-10-48.4-15.1C64.7,107.8,64.6,107.7,64,107.4"/>
	<path id="path13" class="st0" d="M62.4,161.9c5-1.5,9.5-2.9,14-4.1c1-0.3,2.2,0.3,3.2,0.6c10.4,3.3,20.7,6.6,31.1,9.8
		c1.7,0.5,3.8,0.5,5.5,0c10.2-3.1,20.4-6.4,30.6-9.5c1.3-0.4,2.9-0.3,4.3,0c3.5,1,6.9,2.2,11,3.6c-6.9,2.2-13.1,4.1-19.2,6
		c-9.2,2.9-18.4,5.8-27.7,8.6c-1.2,0.4-2.8,0.6-4,0.2c-15.8-4.8-31.6-9.8-47.4-14.7C63.6,162.4,63.3,162.2,62.4,161.9"/>
</g>
<g>
	<path class="st0" d="M185.6,8c18.3,0,33.2,14.9,33.2,33.2v144.4c0,18.3-14.9,33.2-33.2,33.2H41.2C22.9,218.8,8,203.9,8,185.6V41.2
		C8,22.9,22.9,8,41.2,8H185.6 M185.6,0H41.2C18.5,0,0,18.5,0,41.2v144.4c0,22.6,18.5,41.2,41.2,41.2h144.4
		c22.6,0,41.2-18.5,41.2-41.2V41.2C226.8,18.5,208.2,0,185.6,0L185.6,0z"/>
</g>
</svg>
